<svg xmlns="http://www.w3.org/2000/svg" viewBox="0 0 24 24" id="audiomack"><path fill="#EF815F" fill-rule="evenodd" d="M20.1227 5.50473c.2473.03428.4313.24566.4313.49526v8.40581l1.2876-.43c.2619-.0875.5451.0539.6326.3158.0875.2619-.0539.5451-.3158.6326l-1.9459.65c-.1525.051-.3202.0255-.4507-.0685-.1304-.094-.2078-.2449-.2078-.4057v-5.49391l-2.6945 9.52991c-.0679.2402-.3026.3935-.5498.3593-.2472-.0343-.4313-.2457-.4313-.4953v-7.4213l-2.5181 4.7312c-.0922.1732-.2771.2764-.4728.2641-.1958-.0123-.3663-.138-.436-.3213l-1.3175-3.4657-1.22446 2.5308c-.08695.1797-.27247.2904-.47192.2817-.19945-.0087-.37459-.1352-.44554-.3218l-.59841-1.5741-.63822.604c-.16958.1605-.42765.1822-.62171.0524l-1.41176-.9444c-.22952-.1536-.29111-.4641-.13757-.6936.15354-.2295.46408-.2911.6936-.1376l1.07998.7225.89291-.8451c.1214-.1149.2922-.1615.45515-.1242.16295.0372.2965.1535.3559.3097l.45265 1.1907 1.2245-2.5308c.0869-.1797.2725-.2904.4719-.2817.1995.0087.3746.1352.4455.3218l1.3384 3.5206 2.9421-5.52782c.1078-.2026.3397-.30578.5624-.25021.2227.05557.379.25561.379.48512v5.81891l2.6945-9.52994c.0679-.2402.3026-.39351.5498-.35923zM2.5 13c0-.2761.22386-.5.5-.5h.5c.27614 0 .5.2239.5.5 0 .2761-.22386.5-.5.5h-.5c-.27614 0-.5-.2239-.5-.5z"></path></svg>